<?xml version="1.0" standalone="no"?>
<!DOCTYPE svg PUBLIC "-//W3C//DTD SVG 20010904//EN"
 "http://www.w3.org/TR/2001/REC-SVG-20010904/DTD/svg10.dtd">
<svg version="1.0" xmlns="http://www.w3.org/2000/svg"
 width="700.000000pt" height="700.000000pt" viewBox="0 0 700.000000 700.000000"
 preserveAspectRatio="xMidYMid meet">
<metadata>
Created by potrace 1.14, written by Peter Selinger 2001-2017
</metadata>
<g transform="translate(0.000000,700.000000) scale(0.100000,-0.100000)"
fill="#000000" stroke="none">
<path d="M661 4750 c-4 -3 -8 -555 -8 -1227 0 -1108 2 -1222 16 -1226 24 -6
1173 -1 1196 5 11 3 58 9 105 13 47 4 87 9 90 10 3 2 26 6 50 10 156 22 310
89 394 171 120 118 172 257 169 452 -3 182 -59 302 -185 400 -130 101 -253
149 -432 167 -79 8 -124 22 -110 34 5 5 56 23 114 41 244 73 411 183 474 312
127 260 6 567 -279 710 -119 60 -267 101 -381 107 -23 1 -57 4 -75 7 -30 4
-362 10 -957 17 -95 1 -177 0 -181 -3z m894 -275 c196 -9 209 -11 271 -39 61
-28 144 -108 174 -167 18 -33 20 -54 17 -171 -4 -156 -24 -222 -87 -287 -43
-44 -71 -61 -145 -84 -84 -27 -102 -29 -341 -34 l-230 -5 1 398 c1 220 3 399
4 399 73 0 230 -4 336 -10z m-72 -1060 c80 -3 154 -7 164 -10 11 -2 44 -6 74
-10 213 -26 320 -100 374 -260 12 -38 19 -100 18 -172 -4 -240 -100 -343 -358
-382 -33 -5 -168 -9 -301 -10 l-240 -2 1 423 c1 233 3 426 4 430 0 4 27 5 60
3 32 -2 124 -7 204 -10z"/>
<path d="M2752 4729 c-62 -12 -64 -15 -38 -67 22 -45 147 -344 216 -517 17
-44 38 -93 45 -110 8 -16 50 -122 95 -235 44 -113 85 -214 90 -225 10 -24 204
-515 386 -978 l129 -329 105 7 c58 3 109 10 113 14 4 4 89 223 187 487 99 263
187 495 195 514 8 19 64 168 124 330 149 399 309 820 364 960 26 67 42 119 36
124 -4 5 -70 10 -144 10 l-136 1 -65 -175 c-36 -96 -69 -187 -73 -201 -9 -27
-61 -169 -171 -469 -38 -102 -101 -275 -140 -385 -101 -283 -152 -415 -162
-421 -4 -3 -13 7 -19 23 -12 31 -10 24 -169 448 -62 165 -128 341 -147 390
-19 50 -38 101 -43 115 -38 115 -156 403 -203 500 -33 67 -52 93 -90 121 -26
20 -53 36 -60 37 -7 1 -34 6 -62 12 -27 6 -63 13 -80 15 -56 9 -240 12 -283 4z"/>
<path d="M6040 4686 c-9 -26 -180 -496 -225 -621 -18 -49 -48 -133 -68 -185
-77 -208 -168 -463 -216 -605 -62 -184 -74 -215 -82 -215 -8 0 -63 125 -133
300 -26 63 -51 124 -56 135 -11 24 -102 265 -172 453 -71 193 -138 391 -138
410 -1 24 -42 -44 -99 -163 -43 -89 -183 -441 -201 -505 -5 -17 3 -49 26 -105
18 -44 91 -228 164 -410 72 -181 135 -339 140 -350 5 -11 58 -144 118 -295
l109 -275 65 3 c35 2 73 5 84 7 10 2 31 4 47 4 15 1 27 6 27 12 0 6 11 38 24
72 37 96 118 308 133 352 8 22 30 83 50 135 20 52 46 122 58 155 12 33 89 236
170 450 81 215 157 417 170 450 23 64 146 387 244 645 32 85 57 157 55 159 -2
2 -67 5 -145 6 -134 2 -141 1 -149 -19z"/>
</g>
</svg>
