<svg xmlns="http://www.w3.org/2000/svg" 
    version="1.0" 
    preserveAspectRatio="xMidYMid meet" 
    viewBox="21 72.18 182.8 80.74">  
  <g transform="matrix(0.1, 0.000897, 0, -0.1, 0, 223.992218)" 
    fill="#f2f3f4" 
    stroke="none" 
    style="">    
    <path d="M 210 1125 L 210 730 L 413 730 C 699 730 792 756 840 850 C 866 901 867 983 841 1030 C 815 1079 746 1120 676 1127 C 616 1133 607.53 1137.282 653 1150 C 716.568 1167.78 796 1203 819 1263 C 858 1364 800 1464 682 1500 C 627 1517 589 1520 414 1520 L 210 1520 L 210 1125 Z M 549 1431 C 573 1430 596.265 1422.171 620.265 1398.171 C 649.265 1369.171 650 1355 650 1316 C 650 1215 603 1180 470 1180 L 390 1180 L 390 1310 L 390 1434.735 L 453 1435 C 487 1433 530 1431 549 1431 Z M 611 1074 C 657 1054 680 1014 680 955 C 680 853 633 820 486 820 L 390 820 L 390 958 L 390 1095 L 482 1092 C 537 1090 590 1083 611 1074 Z" style=""></path>    
    <path d="M 867 1508 C 873 1501 946 1323 1030 1112 L 1182 729 L 1217 732 L 1252 735 L 1395 1116 C 1473 1326 1540 1502 1544 1509 C 1549 1517 1536 1520 1502 1520 L 1453 1520 L 1383 1328 C 1344 1222 1300 1100 1285 1057 C 1270 1014 1256 981 1255 982 C 1253 984 1215 1084 1170 1205 C 1067 1480 1063 1488 1029 1505 C 993 1524 853 1526 867 1508 Z" style=""></path>    
    <path d="M 1860 1288 C 1813 1160 1771 1042 1767 1025 C 1762 1009 1755 992 1752 988 C 1745 981 1590 1384 1590 1408 C 1590 1415 1552 1344 1531 1287 L 1492 1183 L 1583 956 L 1674 729 L 1709 732 L 1743 735 L 1890 1128 L 2038 1520 L 1991 1520 L 1944 1520 L 1860 1288 Z" style=""></path>  
  </g>
</svg>